{"title":"Ender´s Game TS CamRip.mp4","uid":9158233,"size":398993864,"categoryP":"video","categoryS":"movies","magnet":"?xt=urn:btih:309751ff5d29117b770824a7f3af7518daf36f52&amp;dn=Ender%26acute%3Bs+Game+TS+CamRip.mp4&amp;tr=udp%3A%2F%2Ftracker.openbittorrent.com%3A80&amp;tr=udp%3A%2F%2Fopen.demonii.com%3A1337&amp;tr=udp%3A%2F%2Ftracker.coppersurfer.tk%3A6969&amp;tr=udp%3A%2F%2Fexodus.desync.com%3A6969","seeders":2,"leechers":0,"uploader":"globeplus","files":-1,"time":1383824002,"description":"EnderÂ´s Game TS CamRip.mp4\n\nFormat                                   : MPEG-4\nFormat profile                           : Base Media\nCodec ID                                 : isom\nFile size                                : 381 MiB\nDuration                                 : 1h 39mn\nOverall bit rate mode                    : Variable\nOverall bit rate                         : 534 Kbps\nWriting application                      : Lavf54.32.101\n\nVideo\n\nID                                       : 1\nFormat                                   : AVC\nFormat/Info                              : Advanced Video Codec\nFormat profile                           : &lt;a class=&quot;__cf_email__&quot; href=&quot;/cdn-cgi/l/email-protection&quot; data-cfemail=&quot;f9b1909e91b9b5cad7c9&quot;&gt;[email&amp;#160;protected]&lt;/a&gt;&lt;script cf-hash='f9e31' type=&quot;text/javascript&quot;&gt;\n/* &lt;![CDATA[ */!function(){try{var t=&quot;currentScript&quot;in document?document.currentScript:function(){for(var t=document.getElementsByTagName(&quot;script&quot;),e=t.length;e--;)if(t[e].getAttribute(&quot;cf-hash&quot;))return t[e]}();if(t&amp;&amp;t.previousSibling){var e,r,n,i,c=t.previousSibling,a=c.getAttribute(&quot;data-cfemail&quot;);if(a){for(e=&quot;&quot;,r=parseInt(a.substr(0,2),16),n=2;a.length-n;n+=2)i=parseInt(a.substr(n,2),16)^r,e+=String.fromCharCode(i);e=document.createTextNode(e),c.parentNode.replaceChild(e,c)}}}catch(u){}}();/* ]]&gt; */&lt;/script&gt;\nFormat settings, CABAC                   : Yes\nFormat settings, ReFrames                : 4 frames\nCodec ID                                 : avc1\nCodec ID/Info                            : Advanced Video Coding\nDuration                                 : 1h 39mn\nBit rate mode                            : Variable\nBit rate                                 : 429 Kbps\nWidth                                    : 720 pixels\nHeight                                   : 304 pixels\nDisplay aspect ratio                     : 2.35:1\nFrame rate mode                          : Constant\nFrame rate                               : 29.970 fps\nColor space                              : YUV\nChroma subsampling                       : 4:2:0\nBit depth                                : 8 bits\nScan type                                : Progressive\nBits/(Pixel*Frame)                       : 0.065\nStream size                              : 305 MiB (80%)\nWriting library                          : x264 core 128 r2216 198a7ea\n\n\nAudio\n\nID                                       : 2\nFormat                                   : AAC\nFormat/Info                              : Advanced Audio Codec\nFormat profile                           : LC\nCodec ID                                 : 40\nDuration                                 : 1h 39mn\nBit rate mode                            : Variable\nBit rate                                 : 96.0 Kbps\nChannel(s)                               : 2 channels\nChannel positions                        : Front: L R\nSampling rate                            : 44.1 KHz\nCompression mode                         : Lossy\nStream size                              : 67.5 MiB (18%)\n\n\nPlot\n\nIn 2086, an alien species called the formics attacks Earth. Mazer Rackham, commander of a small reserve patrol force, halts their advance, apparently sacrificing himself during their attack.\n\nYears later, a young cadet named Andrew &quot;Ender&quot; Wiggin beats school bully Stilson at a hand-held virtual game while Colonel Hyrum Graff and Major Gwen Anderson from the International Fleet watch via hidden cameras. Ender is summoned to have the monitor on the back of his neck removed. When Stilson attacks him with his gang, Ender retaliates, beating Stilson violently. Ender returns home and confesses grief to his sister Valentine over his actions. Their older brother Peter interrupts them and convinces Ender to play a game. He starts to choke Ender, threatening to kill him but pulls back. Graff and Anderson visit the Wiggin family and offer Ender a place in Battle School, admitting that the final test was to see how Ender would react to his monitor's removal. Graff talks privately with Ender, convincing him to accept.\n\n\n\n\n* enjoy ...","torrent":{"xt":"urn:btih:309751ff5d29117b770824a7f3af7518daf36f52","amp;dn":"Ender%26acute%3Bs+Game+TS+CamRip.mp4","amp;tr":["udp%3A%2F%2Ftracker.openbittorrent.com%3A80","udp%3A%2F%2Fopen.demonii.com%3A1337","udp%3A%2F%2Ftracker.coppersurfer.tk%3A6969","udp%3A%2F%2Fexodus.desync.com%3A6969"],"infoHash":"309751ff5d29117b770824a7f3af7518daf36f52","infoHashBuffer":{"type":"Buffer","data":[48,151,81,255,93,41,17,123,119,8,36,167,243,175,117,24,218,243,111,82]},"announce":[],"urlList":[]}}